<svg id="Layer_1" data-name="Layer 1" xmlns="http://www.w3.org/2000/svg" viewBox="0 0 216.24 83.77"><defs><style>.cls-1{fill:#27aae1;}.cls-2{fill:#1b75bc;}</style></defs><polygon class="cls-1" points="44.96 79.28 27.95 79.28 0 12.13 17 12.13 44.96 79.28"/><polygon class="cls-1" points="80.4 79.28 63.4 79.28 35.45 12.13 52.45 12.13 80.4 79.28"/><polygon class="cls-1" points="115.56 79.28 98.56 79.28 70.6 12.13 87.61 12.13 115.56 79.28"/><polygon class="cls-1" points="161.74 12.13 142.25 58.94 122.76 12.13 105.76 12.13 133.72 79.28 133.79 79.28 150.72 79.28 150.79 79.28 178.74 12.13 161.74 12.13"/><polygon class="cls-2" points="133.72 79.28 142.2 58.82 139.59 52.54 133.72 79.28"/><polygon class="cls-2" points="186.99 67.95 198.32 54.28 195.65 47.84 186.99 67.95"/><polygon class="cls-1" points="193.51 83.77 210.51 83.77 195.65 47.84 216.24 0 199.24 0 178.74 47.95 193.51 83.77"/></svg>